<mxfile host="65bd71144e">
    <diagram id="hXg4DIn9z8MC3Drtgm0u" name="User Sign Up">
        <mxGraphModel dx="2208" dy="2083" grid="1" gridSize="10" guides="1" tooltips="1" connect="1" arrows="1" fold="1" page="1" pageScale="1" pageWidth="850" pageHeight="1100" background="#ffffff" math="0" shadow="0">
            <root>
                <mxCell id="0"/>
                <mxCell id="1" parent="0"/>
                <mxCell id="109" value="BACKEND" style="rounded=1;whiteSpace=wrap;html=1;fontSize=19;fillColor=#CFFDFF;rotation=0;verticalAlign=top;arcSize=7;strokeColor=#d6b656;fontColor=#000000;opacity=60;" vertex="1" parent="1">
                    <mxGeometry x="-190" y="-40" width="1020.57" height="780" as="geometry"/>
                </mxCell>
                <mxCell id="40" value="BACKEND" style="rounded=1;whiteSpace=wrap;html=1;fontSize=19;fillColor=#fff2cc;rotation=0;verticalAlign=top;arcSize=7;strokeColor=#d6b656;fontColor=#000000;opacity=60;" vertex="1" parent="1">
                    <mxGeometry x="850" y="-40" width="510.57" height="780" as="geometry"/>
                </mxCell>
                <mxCell id="13" value="VALIDATION" style="rounded=1;whiteSpace=wrap;html=1;fillColor=#33FFFF;fontColor=#000000;strokeColor=#C73500;verticalAlign=top;fontSize=15;arcSize=7;" vertex="1" parent="1">
                    <mxGeometry x="430" y="10" width="370" height="220" as="geometry"/>
                </mxCell>
                <mxCell id="5" value="" style="edgeStyle=none;html=1;entryX=0;entryY=0.5;entryDx=0;entryDy=0;" edge="1" parent="1" source="3" target="6">
                    <mxGeometry relative="1" as="geometry">
                        <mxPoint x="130" y="70" as="targetPoint"/>
                    </mxGeometry>
                </mxCell>
                <mxCell id="23" style="edgeStyle=orthogonalEdgeStyle;html=1;entryX=0;entryY=0.5;entryDx=0;entryDy=0;strokeWidth=3;fontSize=12;strokeColor=#000000;" edge="1" parent="1" source="3" target="6">
                    <mxGeometry relative="1" as="geometry"/>
                </mxCell>
                <mxCell id="3" value="Internal User" style="sketch=0;aspect=fixed;html=1;points=[];align=center;image;fontSize=12;image=img/lib/mscae/Person.svg;" vertex="1" parent="1">
                    <mxGeometry x="10" y="45" width="37" height="50" as="geometry"/>
                </mxCell>
                <mxCell id="24" style="edgeStyle=orthogonalEdgeStyle;html=1;exitX=1;exitY=0.5;exitDx=0;exitDy=0;entryX=0;entryY=0.5;entryDx=0;entryDy=0;strokeWidth=3;fontSize=12;strokeColor=#000000;" edge="1" parent="1" source="6" target="8">
                    <mxGeometry relative="1" as="geometry"/>
                </mxCell>
                <mxCell id="6" value="Visits public site and clicks the &quot;connect&quot; link" style="rounded=1;whiteSpace=wrap;html=1;" vertex="1" parent="1">
                    <mxGeometry x="130" y="40" width="100" height="60" as="geometry"/>
                </mxCell>
                <mxCell id="25" style="edgeStyle=orthogonalEdgeStyle;html=1;exitX=1;exitY=0.5;exitDx=0;exitDy=0;entryX=0;entryY=0.5;entryDx=0;entryDy=0;strokeWidth=3;fontSize=12;strokeColor=#000000;" edge="1" parent="1" source="8" target="9">
                    <mxGeometry relative="1" as="geometry"/>
                </mxCell>
                <mxCell id="8" value="User completes form and hits submit" style="rounded=1;whiteSpace=wrap;html=1;" vertex="1" parent="1">
                    <mxGeometry x="290" y="40" width="100" height="60" as="geometry"/>
                </mxCell>
                <mxCell id="14" value="" style="edgeStyle=none;html=1;exitX=1;exitY=0.5;exitDx=0;exitDy=0;entryX=0;entryY=0.5;entryDx=0;entryDy=0;fontSize=12;fillColor=#60a917;strokeColor=#2D7600;strokeWidth=3;" edge="1" parent="1" source="9" target="10">
                    <mxGeometry relative="1" as="geometry">
                        <mxPoint as="offset"/>
                    </mxGeometry>
                </mxCell>
                <mxCell id="17" style="edgeStyle=orthogonalEdgeStyle;html=1;exitX=0.5;exitY=1;exitDx=0;exitDy=0;entryX=0.5;entryY=0;entryDx=0;entryDy=0;fontSize=12;fillColor=#e51400;strokeColor=#FF0000;strokeWidth=3;" edge="1" parent="1" source="9" target="16">
                    <mxGeometry relative="1" as="geometry"/>
                </mxCell>
                <mxCell id="9" value="Email?&lt;br&gt;Password?" style="rhombus;whiteSpace=wrap;html=1;" vertex="1" parent="1">
                    <mxGeometry x="450" y="30" width="80" height="80" as="geometry"/>
                </mxCell>
                <mxCell id="15" value="" style="edgeStyle=none;html=1;exitX=1;exitY=0.5;exitDx=0;exitDy=0;entryX=0;entryY=0.5;entryDx=0;entryDy=0;fontSize=19;strokeWidth=3;strokeColor=#2D7600;" edge="1" parent="1" source="10" target="11">
                    <mxGeometry relative="1" as="geometry"/>
                </mxCell>
                <mxCell id="19" style="edgeStyle=orthogonalEdgeStyle;html=1;exitX=0.5;exitY=1;exitDx=0;exitDy=0;entryX=0.5;entryY=0;entryDx=0;entryDy=0;fontSize=12;fillColor=#e51400;strokeColor=#FF0000;strokeWidth=3;" edge="1" parent="1" source="10" target="16">
                    <mxGeometry relative="1" as="geometry"/>
                </mxCell>
                <mxCell id="10" value="Email Valid?" style="rhombus;whiteSpace=wrap;html=1;" vertex="1" parent="1">
                    <mxGeometry x="570" y="30" width="80" height="80" as="geometry"/>
                </mxCell>
                <mxCell id="18" style="edgeStyle=orthogonalEdgeStyle;html=1;exitX=0.5;exitY=1;exitDx=0;exitDy=0;fontSize=12;fillColor=#e51400;strokeColor=#FF0000;strokeWidth=3;entryX=0.5;entryY=0;entryDx=0;entryDy=0;" edge="1" parent="1" source="11" target="16">
                    <mxGeometry relative="1" as="geometry">
                        <mxPoint x="710" y="250" as="targetPoint"/>
                    </mxGeometry>
                </mxCell>
                <mxCell id="26" value="VALIDATION" style="rounded=1;whiteSpace=wrap;html=1;fillColor=#FFFF33;fontColor=#000000;strokeColor=#C73500;verticalAlign=top;fontSize=15;arcSize=7;" vertex="1" parent="1">
                    <mxGeometry x="870" width="450" height="240" as="geometry"/>
                </mxCell>
                <mxCell id="41" style="edgeStyle=orthogonalEdgeStyle;html=1;exitX=1;exitY=0.5;exitDx=0;exitDy=0;labelBackgroundColor=none;strokeColor=#000000;strokeWidth=3;fontSize=12;entryX=0;entryY=0.5;entryDx=0;entryDy=0;" edge="1" parent="1" source="11" target="30">
                    <mxGeometry relative="1" as="geometry">
                        <mxPoint x="850" y="70" as="targetPoint"/>
                    </mxGeometry>
                </mxCell>
                <mxCell id="11" value="Password Valid?" style="rhombus;whiteSpace=wrap;html=1;" vertex="1" parent="1">
                    <mxGeometry x="690" y="30" width="80" height="80" as="geometry"/>
                </mxCell>
                <mxCell id="16" value="FE Error Management" style="shape=process;whiteSpace=wrap;html=1;backgroundOutline=1;" vertex="1" parent="1">
                    <mxGeometry x="550" y="160" width="120" height="60" as="geometry"/>
                </mxCell>
                <mxCell id="27" value="" style="edgeStyle=none;html=1;fontSize=12;fillColor=#60a917;strokeColor=#2D7600;strokeWidth=3;labelBackgroundColor=none;entryX=0;entryY=0.5;entryDx=0;entryDy=0;exitX=1;exitY=0.5;exitDx=0;exitDy=0;" edge="1" parent="1" source="30" target="34">
                    <mxGeometry x="0.0077" relative="1" as="geometry">
                        <mxPoint as="offset"/>
                        <mxPoint x="880" y="542.3529411764706" as="sourcePoint"/>
                        <mxPoint x="670" y="340" as="targetPoint"/>
                    </mxGeometry>
                </mxCell>
                <mxCell id="28" style="edgeStyle=orthogonalEdgeStyle;html=1;exitX=0.5;exitY=1;exitDx=0;exitDy=0;fontSize=12;fillColor=#e51400;strokeColor=#FF0000;strokeWidth=3;entryX=0;entryY=0.5;entryDx=0;entryDy=0;" edge="1" parent="1" source="30" target="38">
                    <mxGeometry relative="1" as="geometry">
                        <Array as="points"/>
                    </mxGeometry>
                </mxCell>
                <mxCell id="30" value="Email?&lt;br&gt;Password?" style="rhombus;whiteSpace=wrap;html=1;" vertex="1" parent="1">
                    <mxGeometry x="880" y="30" width="80" height="80" as="geometry"/>
                </mxCell>
                <mxCell id="31" value="" style="edgeStyle=none;html=1;entryX=0;entryY=0.5;entryDx=0;entryDy=0;fontSize=19;strokeWidth=3;strokeColor=#2D7600;labelBackgroundColor=none;exitX=1;exitY=0.5;exitDx=0;exitDy=0;" edge="1" parent="1" source="34" target="52">
                    <mxGeometry x="-0.3333" y="-11" relative="1" as="geometry">
                        <mxPoint x="790" y="540" as="sourcePoint"/>
                        <mxPoint x="550" y="341" as="targetPoint"/>
                        <mxPoint as="offset"/>
                    </mxGeometry>
                </mxCell>
                <mxCell id="32" style="edgeStyle=orthogonalEdgeStyle;html=1;exitX=0.5;exitY=1;exitDx=0;exitDy=0;entryX=0.5;entryY=0;entryDx=0;entryDy=0;fontSize=12;fillColor=#e51400;strokeColor=#FF0000;strokeWidth=3;" edge="1" parent="1" source="34" target="38">
                    <mxGeometry relative="1" as="geometry"/>
                </mxCell>
                <mxCell id="34" value="Email&lt;br&gt;valid?" style="rhombus;whiteSpace=wrap;html=1;" vertex="1" parent="1">
                    <mxGeometry x="1000" y="30" width="80" height="80" as="geometry"/>
                </mxCell>
                <mxCell id="35" style="edgeStyle=orthogonalEdgeStyle;html=1;exitX=0.5;exitY=1;exitDx=0;exitDy=0;entryX=1;entryY=0.5;entryDx=0;entryDy=0;fontSize=12;fillColor=#e51400;strokeColor=#FF0000;strokeWidth=3;" edge="1" parent="1" source="37" target="38">
                    <mxGeometry relative="1" as="geometry"/>
                </mxCell>
                <mxCell id="47" style="edgeStyle=orthogonalEdgeStyle;html=1;exitX=1;exitY=0.5;exitDx=0;exitDy=0;labelBackgroundColor=none;strokeColor=#2D7600;strokeWidth=3;fontSize=12;fontColor=#000000;entryX=1;entryY=0.5;entryDx=0;entryDy=0;" edge="1" parent="1" source="37" target="44">
                    <mxGeometry relative="1" as="geometry">
                        <mxPoint x="1410" y="320" as="targetPoint"/>
                        <Array as="points">
                            <mxPoint x="1340" y="70"/>
                            <mxPoint x="1340" y="375"/>
                        </Array>
                    </mxGeometry>
                </mxCell>
                <mxCell id="37" value="Password Valid?" style="rhombus;whiteSpace=wrap;html=1;" vertex="1" parent="1">
                    <mxGeometry x="1230" y="30" width="80" height="80" as="geometry"/>
                </mxCell>
                <mxCell id="101" style="edgeStyle=orthogonalEdgeStyle;html=1;exitX=0.5;exitY=1;exitDx=0;exitDy=0;entryX=0.5;entryY=0;entryDx=0;entryDy=0;labelBackgroundColor=none;strokeColor=#000000;strokeWidth=3;fontSize=15;fontColor=#000000;" edge="1" parent="1" source="38" target="100">
                    <mxGeometry relative="1" as="geometry"/>
                </mxCell>
                <mxCell id="38" value="BE Error Management" style="shape=process;whiteSpace=wrap;html=1;backgroundOutline=1;" vertex="1" parent="1">
                    <mxGeometry x="1040" y="160" width="120" height="60" as="geometry"/>
                </mxCell>
                <mxCell id="42" style="edgeStyle=orthogonalEdgeStyle;html=1;labelBackgroundColor=none;strokeColor=#000000;strokeWidth=3;fontSize=12;exitX=0.5;exitY=1;exitDx=0;exitDy=0;entryX=0.5;entryY=0;entryDx=0;entryDy=0;" edge="1" parent="1" source="45" target="80">
                    <mxGeometry relative="1" as="geometry">
                        <mxPoint x="1211.5" y="485" as="sourcePoint"/>
                        <mxPoint x="1039.8571428571431" y="406.3600000000001" as="targetPoint"/>
                    </mxGeometry>
                </mxCell>
                <mxCell id="48" style="edgeStyle=orthogonalEdgeStyle;html=1;exitX=0.5;exitY=1;exitDx=0;exitDy=0;entryX=0.5;entryY=0;entryDx=0;entryDy=0;labelBackgroundColor=none;strokeColor=#000000;strokeWidth=3;fontSize=12;fontColor=#000000;" edge="1" parent="1" source="44" target="45">
                    <mxGeometry relative="1" as="geometry"/>
                </mxCell>
                <mxCell id="44" value="&lt;font&gt;Hash PW&lt;/font&gt;" style="rounded=1;whiteSpace=wrap;html=1;fontSize=12;fillColor=default;strokeColor=#000000;fontColor=#FFFFFF;" vertex="1" parent="1">
                    <mxGeometry x="1231.5" y="345" width="70" height="60" as="geometry"/>
                </mxCell>
                <mxCell id="45" value="&lt;font&gt;Store User in DB&lt;/font&gt;" style="rounded=1;whiteSpace=wrap;html=1;fontSize=12;fillColor=default;strokeColor=#000000;fontColor=#FFFFFF;" vertex="1" parent="1">
                    <mxGeometry x="1231.5" y="445" width="70" height="60" as="geometry"/>
                </mxCell>
                <mxCell id="62" style="edgeStyle=orthogonalEdgeStyle;html=1;exitX=0;exitY=0.5;exitDx=0;exitDy=0;labelBackgroundColor=none;strokeColor=#000000;strokeWidth=3;fontSize=15;fontColor=#000000;entryX=0.5;entryY=0;entryDx=0;entryDy=0;" edge="1" parent="1" source="82" target="75">
                    <mxGeometry relative="1" as="geometry">
                        <mxPoint x="890" y="299.9999999999998" as="sourcePoint"/>
                        <mxPoint x="770" y="319.9999999999998" as="targetPoint"/>
                    </mxGeometry>
                </mxCell>
                <mxCell id="52" value="Email&lt;br&gt;unique?" style="rhombus;whiteSpace=wrap;html=1;" vertex="1" parent="1">
                    <mxGeometry x="1120" y="30" width="80" height="80" as="geometry"/>
                </mxCell>
                <mxCell id="53" value="" style="edgeStyle=none;html=1;entryX=0;entryY=0.5;entryDx=0;entryDy=0;fontSize=19;strokeWidth=3;strokeColor=#2D7600;labelBackgroundColor=none;exitX=1;exitY=0.5;exitDx=0;exitDy=0;" edge="1" parent="1" source="52" target="37">
                    <mxGeometry x="-0.3333" y="-11" relative="1" as="geometry">
                        <mxPoint x="1090" y="80" as="sourcePoint"/>
                        <mxPoint x="1120" y="80" as="targetPoint"/>
                        <mxPoint as="offset"/>
                    </mxGeometry>
                </mxCell>
                <mxCell id="54" style="edgeStyle=orthogonalEdgeStyle;html=1;exitX=0.5;exitY=1;exitDx=0;exitDy=0;entryX=0.5;entryY=0;entryDx=0;entryDy=0;fontSize=12;fillColor=#e51400;strokeColor=#FF0000;strokeWidth=3;" edge="1" parent="1" source="52" target="38">
                    <mxGeometry relative="1" as="geometry">
                        <mxPoint x="1050" y="120" as="sourcePoint"/>
                        <mxPoint x="1110" y="170" as="targetPoint"/>
                    </mxGeometry>
                </mxCell>
                <mxCell id="74" style="edgeStyle=orthogonalEdgeStyle;html=1;entryX=1;entryY=0.5;entryDx=0;entryDy=0;labelBackgroundColor=none;strokeColor=#FF0000;strokeWidth=3;fontSize=15;fontColor=#000000;exitX=0;exitY=0.5;exitDx=0;exitDy=0;" edge="1" parent="1" source="66" target="92">
                    <mxGeometry relative="1" as="geometry">
                        <mxPoint x="230" y="455" as="sourcePoint"/>
                    </mxGeometry>
                </mxCell>
                <mxCell id="91" style="edgeStyle=orthogonalEdgeStyle;html=1;entryX=1;entryY=0.5;entryDx=0;entryDy=0;labelBackgroundColor=none;strokeColor=#000000;strokeWidth=3;fontSize=15;fontColor=#000000;" edge="1" parent="1" source="64" target="89">
                    <mxGeometry relative="1" as="geometry"/>
                </mxCell>
                <mxCell id="64" value="Notify user that we found a profile that matches their email address" style="shape=process;whiteSpace=wrap;html=1;backgroundOutline=1;" vertex="1" parent="1">
                    <mxGeometry x="620" y="440" width="130" height="80" as="geometry"/>
                </mxCell>
                <mxCell id="69" style="edgeStyle=orthogonalEdgeStyle;html=1;entryX=0.5;entryY=0;entryDx=0;entryDy=0;labelBackgroundColor=none;strokeColor=#2D7600;strokeWidth=3;fontSize=15;fontColor=#000000;exitX=0.5;exitY=1;exitDx=0;exitDy=0;" edge="1" parent="1" source="66" target="68">
                    <mxGeometry relative="1" as="geometry">
                        <mxPoint x="239.99999999999977" y="505" as="sourcePoint"/>
                    </mxGeometry>
                </mxCell>
                <mxCell id="66" value="Validated?" style="rhombus;whiteSpace=wrap;html=1;" vertex="1" parent="1">
                    <mxGeometry x="290" y="440" width="80" height="80" as="geometry"/>
                </mxCell>
                <mxCell id="94" style="edgeStyle=orthogonalEdgeStyle;html=1;exitX=0.5;exitY=1;exitDx=0;exitDy=0;labelBackgroundColor=none;strokeColor=#2D7600;strokeWidth=3;fontSize=15;fontColor=#000000;entryX=0.464;entryY=1.003;entryDx=0;entryDy=0;entryPerimeter=0;" edge="1" parent="1" source="104" target="75">
                    <mxGeometry relative="1" as="geometry">
                        <mxPoint x="340" y="520" as="targetPoint"/>
                        <Array as="points">
                            <mxPoint x="1033" y="680"/>
                            <mxPoint x="24" y="680"/>
                        </Array>
                    </mxGeometry>
                </mxCell>
                <mxCell id="68" value="Notify the user that all is good and connect the user and profile" style="shape=process;whiteSpace=wrap;html=1;backgroundOutline=1;" vertex="1" parent="1">
                    <mxGeometry x="270" y="555" width="120" height="80" as="geometry"/>
                </mxCell>
                <mxCell id="76" style="edgeStyle=orthogonalEdgeStyle;html=1;exitX=0;exitY=0.5;exitDx=0;exitDy=0;labelBackgroundColor=none;strokeColor=#000000;strokeWidth=3;fontSize=15;fontColor=#000000;entryX=1;entryY=0.5;entryDx=0;entryDy=0;" edge="1" parent="1" source="72" target="64">
                    <mxGeometry relative="1" as="geometry">
                        <mxPoint x="730" y="590" as="targetPoint"/>
                    </mxGeometry>
                </mxCell>
                <mxCell id="102" style="edgeStyle=orthogonalEdgeStyle;html=1;exitX=0;exitY=0.5;exitDx=0;exitDy=0;entryX=0.5;entryY=1;entryDx=0;entryDy=0;entryPerimeter=0;labelBackgroundColor=none;strokeColor=#000000;strokeWidth=3;fontSize=15;fontColor=#000000;" edge="1" parent="1" source="75" target="99">
                    <mxGeometry relative="1" as="geometry"/>
                </mxCell>
                <mxCell id="75" value="Take user to populated profile screen" style="shape=process;whiteSpace=wrap;html=1;backgroundOutline=1;" vertex="1" parent="1">
                    <mxGeometry x="-31.5" y="440" width="120" height="80" as="geometry"/>
                </mxCell>
                <mxCell id="79" style="edgeStyle=orthogonalEdgeStyle;html=1;labelBackgroundColor=none;strokeColor=#2D7600;strokeWidth=3;fontSize=15;fontColor=#000000;entryX=1;entryY=0.5;entryDx=0;entryDy=0;" edge="1" parent="1" source="78" target="83">
                    <mxGeometry relative="1" as="geometry"/>
                </mxCell>
                <mxCell id="86" style="edgeStyle=orthogonalEdgeStyle;html=1;exitX=0.5;exitY=0;exitDx=0;exitDy=0;labelBackgroundColor=none;strokeColor=#FF0000;strokeWidth=3;fontSize=15;fontColor=#000000;entryX=0.792;entryY=0.983;entryDx=0;entryDy=0;entryPerimeter=0;" edge="1" parent="1" source="78" target="82">
                    <mxGeometry relative="1" as="geometry">
                        <mxPoint x="1148.5" y="405" as="targetPoint"/>
                    </mxGeometry>
                </mxCell>
                <mxCell id="78" value="&lt;font&gt;Profile&lt;br&gt;exist by email?&lt;/font&gt;" style="rhombus;whiteSpace=wrap;html=1;fillColor=default;strokeColor=#000000;fontColor=#FFFFFF;" vertex="1" parent="1">
                    <mxGeometry x="1108.5" y="440" width="80" height="80" as="geometry"/>
                </mxCell>
                <mxCell id="81" style="edgeStyle=orthogonalEdgeStyle;html=1;exitX=0;exitY=0.5;exitDx=0;exitDy=0;entryX=0.5;entryY=1;entryDx=0;entryDy=0;labelBackgroundColor=none;strokeColor=#000000;strokeWidth=3;fontSize=15;fontColor=#000000;" edge="1" parent="1" source="80" target="78">
                    <mxGeometry relative="1" as="geometry"/>
                </mxCell>
                <mxCell id="80" value="&lt;font&gt;Sign user in by generating a token&lt;/font&gt;" style="rounded=1;whiteSpace=wrap;html=1;fontSize=12;fillColor=default;strokeColor=#000000;fontColor=#FFFFFF;" vertex="1" parent="1">
                    <mxGeometry x="1231.5" y="545" width="70" height="60" as="geometry"/>
                </mxCell>
                <mxCell id="82" value="&lt;font&gt;Return user with token and an empty profile&lt;/font&gt;" style="rounded=1;whiteSpace=wrap;html=1;fontSize=12;fillColor=default;strokeColor=#000000;fontColor=#FFFFFF;" vertex="1" parent="1">
                    <mxGeometry x="998.5" y="345" width="190" height="60" as="geometry"/>
                </mxCell>
                <mxCell id="84" style="edgeStyle=orthogonalEdgeStyle;html=1;exitX=0;exitY=0.5;exitDx=0;exitDy=0;entryX=1;entryY=0.5;entryDx=0;entryDy=0;labelBackgroundColor=none;strokeColor=#2D7600;strokeWidth=3;fontSize=15;fontColor=#000000;" edge="1" parent="1" source="83" target="72">
                    <mxGeometry relative="1" as="geometry"/>
                </mxCell>
                <mxCell id="87" style="edgeStyle=orthogonalEdgeStyle;html=1;exitX=0.5;exitY=0;exitDx=0;exitDy=0;entryX=0.186;entryY=1.031;entryDx=0;entryDy=0;labelBackgroundColor=none;strokeColor=#FF0000;strokeWidth=3;fontSize=15;fontColor=#000000;entryPerimeter=0;" edge="1" parent="1" source="83" target="82">
                    <mxGeometry relative="1" as="geometry"/>
                </mxCell>
                <mxCell id="83" value="&lt;font&gt;Profile not connected?&lt;/font&gt;" style="rhombus;whiteSpace=wrap;html=1;fillColor=default;strokeColor=#000000;fontColor=#FFFFFF;" vertex="1" parent="1">
                    <mxGeometry x="993.5" y="440" width="80" height="80" as="geometry"/>
                </mxCell>
                <mxCell id="72" value="&lt;font&gt;Return user with token and profile, but do not connect them in the datbase&lt;/font&gt;" style="rounded=1;whiteSpace=wrap;html=1;fontSize=12;fillColor=default;strokeColor=#000000;fontColor=#FFFFFF;" vertex="1" parent="1">
                    <mxGeometry x="888.5" y="435" width="80" height="90" as="geometry"/>
                </mxCell>
                <mxCell id="90" style="edgeStyle=orthogonalEdgeStyle;html=1;exitX=0;exitY=0.5;exitDx=0;exitDy=0;entryX=1;entryY=0.5;entryDx=0;entryDy=0;labelBackgroundColor=none;strokeColor=#000000;strokeWidth=3;fontSize=15;fontColor=#000000;" edge="1" parent="1" source="89" target="66">
                    <mxGeometry relative="1" as="geometry"/>
                </mxCell>
                <mxCell id="89" value="If there is additional info in the profile (phone number, address, etc) ask them to verify the profile." style="shape=process;whiteSpace=wrap;html=1;backgroundOutline=1;" vertex="1" parent="1">
                    <mxGeometry x="420" y="440" width="160" height="80" as="geometry"/>
                </mxCell>
                <mxCell id="93" style="edgeStyle=orthogonalEdgeStyle;html=1;entryX=1;entryY=0.5;entryDx=0;entryDy=0;labelBackgroundColor=none;strokeColor=#000000;strokeWidth=3;fontSize=15;fontColor=#000000;" edge="1" parent="1" source="92" target="75">
                    <mxGeometry relative="1" as="geometry"/>
                </mxCell>
                <mxCell id="92" value="Drop the profile" style="shape=process;whiteSpace=wrap;html=1;backgroundOutline=1;" vertex="1" parent="1">
                    <mxGeometry x="120" y="440" width="120" height="80" as="geometry"/>
                </mxCell>
                <mxCell id="97" style="edgeStyle=orthogonalEdgeStyle;html=1;exitX=1;exitY=0.5;exitDx=0;exitDy=0;labelBackgroundColor=none;strokeColor=#000000;strokeWidth=3;fontSize=15;fontColor=#000000;entryX=0;entryY=0.5;entryDx=0;entryDy=0;" edge="1" parent="1" source="68" target="98">
                    <mxGeometry relative="1" as="geometry">
                        <mxPoint x="189.99999999999977" y="455" as="sourcePoint"/>
                        <mxPoint x="748.5714285714286" y="540" as="targetPoint"/>
                    </mxGeometry>
                </mxCell>
                <mxCell id="105" style="edgeStyle=orthogonalEdgeStyle;html=1;exitX=1;exitY=0.5;exitDx=0;exitDy=0;entryX=0;entryY=0.5;entryDx=0;entryDy=0;labelBackgroundColor=none;strokeColor=#000000;strokeWidth=3;fontSize=15;fontColor=#FFFFFF;" edge="1" parent="1" source="98" target="104">
                    <mxGeometry relative="1" as="geometry"/>
                </mxCell>
                <mxCell id="98" value="&lt;font&gt;Link user and profile&lt;/font&gt;" style="rounded=1;whiteSpace=wrap;html=1;fontSize=12;fillColor=default;strokeColor=#000000;fontColor=#FFFFFF;" vertex="1" parent="1">
                    <mxGeometry x="888.5" y="570" width="80" height="50" as="geometry"/>
                </mxCell>
                <mxCell id="99" value="End Process" style="strokeWidth=2;html=1;shape=mxgraph.flowchart.terminator;whiteSpace=wrap;strokeColor=#0000FF;fontSize=15;fontColor=#FFFFFF;fillColor=#0000FF;" vertex="1" parent="1">
                    <mxGeometry x="-120" y="280" width="100" height="40" as="geometry"/>
                </mxCell>
                <mxCell id="103" style="edgeStyle=orthogonalEdgeStyle;html=1;exitX=0;exitY=0.5;exitDx=0;exitDy=0;entryX=1;entryY=0.5;entryDx=0;entryDy=0;entryPerimeter=0;labelBackgroundColor=none;strokeColor=#000000;strokeWidth=3;fontSize=15;fontColor=#000000;" edge="1" parent="1" source="100" target="99">
                    <mxGeometry relative="1" as="geometry"/>
                </mxCell>
                <mxCell id="100" value="Return appropriate response object" style="shape=process;whiteSpace=wrap;html=1;backgroundOutline=1;" vertex="1" parent="1">
                    <mxGeometry x="1040" y="270" width="120" height="60" as="geometry"/>
                </mxCell>
                <mxCell id="107" style="edgeStyle=orthogonalEdgeStyle;html=1;exitX=1;exitY=0.5;exitDx=0;exitDy=0;entryX=0.5;entryY=0;entryDx=0;entryDy=0;labelBackgroundColor=none;strokeColor=#FF0000;strokeWidth=3;fontSize=15;fontColor=#FFFFFF;" edge="1" parent="1" source="104" target="106">
                    <mxGeometry relative="1" as="geometry"/>
                </mxCell>
                <mxCell id="104" value="&lt;font&gt;Join Successful?&lt;/font&gt;" style="rhombus;whiteSpace=wrap;html=1;fillColor=default;strokeColor=#000000;fontColor=#FFFFFF;" vertex="1" parent="1">
                    <mxGeometry x="993.5" y="555" width="80" height="80" as="geometry"/>
                </mxCell>
                <mxCell id="108" style="edgeStyle=orthogonalEdgeStyle;html=1;exitX=0.5;exitY=1;exitDx=0;exitDy=0;entryX=0.5;entryY=1;entryDx=0;entryDy=0;entryPerimeter=0;labelBackgroundColor=none;strokeColor=#000000;strokeWidth=3;fontSize=15;fontColor=#FFFFFF;" edge="1" parent="1" source="106" target="99">
                    <mxGeometry relative="1" as="geometry">
                        <Array as="points">
                            <mxPoint x="1150" y="720"/>
                            <mxPoint x="-70" y="720"/>
                        </Array>
                    </mxGeometry>
                </mxCell>
                <mxCell id="106" value="Return appropriate response object" style="shape=process;whiteSpace=wrap;html=1;backgroundOutline=1;" vertex="1" parent="1">
                    <mxGeometry x="1090" y="635" width="120" height="60" as="geometry"/>
                </mxCell>
            </root>
        </mxGraphModel>
    </diagram>
</mxfile>